<svg width="25" height="29" viewBox="0 0 25 29" fill="none" xmlns="http://www.w3.org/2000/svg">
<path d="M20.4904 15.7623C20.4577 12.217 23.4678 10.4922 23.6054 10.4119C21.9007 7.98862 19.2584 7.65752 18.3299 7.63112C16.1107 7.40342 13.9581 8.92582 12.8277 8.92582C11.6746 8.92582 9.93382 7.65312 8.05761 7.69052C5.64325 7.72682 3.38459 9.08972 2.14582 11.2061C-0.410694 15.5214 1.49597 21.8629 3.94531 25.351C5.17054 27.0593 6.60223 28.9667 8.47618 28.8996C10.3095 28.8259 10.9943 27.76 13.2067 27.76C15.3988 27.76 16.0419 28.8996 17.9531 28.8567C19.9207 28.8259 21.1595 27.1407 22.3418 25.417C23.7577 23.459 24.3263 21.5307 24.3489 21.4317C24.3026 21.4163 20.5277 20.0116 20.4904 15.7623Z" fill="black"/>
<path d="M16.8802 5.33652C17.8662 4.13422 18.5409 2.49852 18.3536 0.838623C16.9264 0.900223 15.1416 1.80112 14.1138 2.97702C13.2045 4.01322 12.3922 5.71162 12.602 7.30882C14.2052 7.42542 15.8513 6.52012 16.8802 5.33652Z" fill="black"/>
</svg>
