<svg width="25" height="29" viewBox="0 0 25 29" fill="none" xmlns="http://www.w3.org/2000/svg">
<path d="M20.4906 15.7623C20.4578 12.217 23.4679 10.4922 23.6055 10.4119C21.9008 7.98862 19.2586 7.65752 18.33 7.63112C16.1109 7.40342 13.9583 8.92582 12.8278 8.92582C11.6748 8.92582 9.93394 7.65312 8.05774 7.69052C5.64338 7.72682 3.38471 9.08972 2.14594 11.2061C-0.410572 15.5214 1.4961 21.8629 3.94543 25.351C5.17066 27.0593 6.60235 28.9667 8.4763 28.8996C10.3096 28.8259 10.9945 27.76 13.2069 27.76C15.399 27.76 16.042 28.8996 17.9532 28.8567C19.9208 28.8259 21.1596 27.1407 22.3419 25.417C23.7578 23.459 24.3265 21.5307 24.349 21.4317C24.3028 21.4163 20.5278 20.0116 20.4906 15.7623Z" fill="white"/>
<path d="M16.8803 5.33652C17.8664 4.13422 18.541 2.49852 18.3537 0.838623C16.9266 0.900223 15.1417 1.80112 14.1139 2.97702C13.2046 4.01322 12.3923 5.71162 12.6021 7.30882C14.2053 7.42542 15.8514 6.52012 16.8803 5.33652Z" fill="white"/>
</svg>
