<svg width="27" height="30" viewBox="0 0 27 30" fill="none" xmlns="http://www.w3.org/2000/svg">
<path d="M0.964732 1.29273C0.633322 1.63098 0.441528 2.1576 0.441528 2.8396V27.1661C0.441528 27.8481 0.633322 28.3747 0.964732 28.713L1.04653 28.7872L15.0278 15.161V14.8392L1.04653 1.21298L0.964732 1.29273Z" fill="url(#paint0_linear_705_10069)"/>
<path d="M19.683 19.7053L15.0277 15.1609V14.8392L19.6886 10.2948L19.793 10.3539L25.3127 13.4161C26.888 14.2851 26.888 15.7151 25.3127 16.5896L19.793 19.6462L19.683 19.7053Z" fill="url(#paint1_linear_705_10069)"/>
<path d="M19.7929 19.6462L15.0277 15.0001L0.9646 28.713C1.4878 29.2492 2.34101 29.3138 3.31127 28.7776L19.7929 19.6462Z" fill="url(#paint2_linear_705_10069)"/>
<path d="M19.7929 10.354L3.31127 1.22263C2.34101 0.691876 1.4878 0.756499 0.9646 1.29275L15.0277 15.0001L19.7929 10.354Z" fill="url(#paint3_linear_705_10069)"/>
<defs>
<linearGradient id="paint0_linear_705_10069" x1="13.7864" y1="27.4194" x2="-4.66829" y2="8.49152" gradientUnits="userSpaceOnUse">
<stop stop-color="#00A0FF"/>
<stop offset="0.0066" stop-color="#00A1FF"/>
<stop offset="0.2601" stop-color="#00BEFF"/>
<stop offset="0.5122" stop-color="#00D2FF"/>
<stop offset="0.7604" stop-color="#00DFFF"/>
<stop offset="1" stop-color="#00E3FF"/>
</linearGradient>
<linearGradient id="paint1_linear_705_10069" x1="27.364" y1="14.9985" x2="0.0648926" y2="14.9985" gradientUnits="userSpaceOnUse">
<stop stop-color="#FFE000"/>
<stop offset="0.4087" stop-color="#FFBD00"/>
<stop offset="0.7754" stop-color="#FFA500"/>
<stop offset="1" stop-color="#FF9C00"/>
</linearGradient>
<linearGradient id="paint2_linear_705_10069" x1="17.2017" y1="12.4744" x2="-7.82438" y2="-13.1934" gradientUnits="userSpaceOnUse">
<stop stop-color="#FF3A44"/>
<stop offset="1" stop-color="#C31162"/>
</linearGradient>
<linearGradient id="paint3_linear_705_10069" x1="-2.57537" y1="36.8063" x2="8.59991" y2="25.3446" gradientUnits="userSpaceOnUse">
<stop stop-color="#32A071"/>
<stop offset="0.0685" stop-color="#2DA771"/>
<stop offset="0.4762" stop-color="#15CF74"/>
<stop offset="0.8009" stop-color="#06E775"/>
<stop offset="1" stop-color="#00F076"/>
</linearGradient>
</defs>
</svg>
