<svg width="89" height="88" viewBox="0 0 89 88" fill="none" xmlns="http://www.w3.org/2000/svg">
<g filter="url(#filter0_d_705_10040)">
<circle cx="44.1923" cy="40" r="16.6667" fill="#C13584"/>
<path d="M44.1924 31.8018C46.8625 31.8018 47.1788 31.812 48.2332 31.8601C49.2082 31.9046 49.7377 32.0675 50.0901 32.2044C50.5569 32.3858 50.89 32.6025 51.2399 32.9524C51.5899 33.3024 51.8065 33.6355 51.988 34.1023C52.1249 34.4546 52.2878 34.9841 52.3323 35.9591C52.3804 37.0136 52.3906 37.3299 52.3906 39.9999C52.3906 42.6701 52.3804 42.9864 52.3323 44.0408C52.2878 45.0158 52.1249 45.5453 51.988 45.8977C51.8065 46.3644 51.5899 46.6976 51.2399 47.0475C50.89 47.3974 50.5569 47.6141 50.0901 47.7955C49.7377 47.9325 49.2082 48.0954 48.2332 48.1398C47.1789 48.1879 46.8627 48.1981 44.1924 48.1981C41.5221 48.1981 41.2059 48.1879 40.1515 48.1398C39.1765 48.0954 38.647 47.9325 38.2947 47.7955C37.8279 47.6141 37.4948 47.3974 37.1449 47.0475C36.7949 46.6976 36.5782 46.3644 36.3968 45.8977C36.2599 45.5453 36.097 45.0158 36.0525 44.0408C36.0044 42.9864 35.9942 42.6701 35.9942 39.9999C35.9942 37.3299 36.0044 37.0136 36.0525 35.9591C36.097 34.9841 36.2599 34.4546 36.3968 34.1023C36.5782 33.6355 36.7949 33.3024 37.1449 32.9525C37.4948 32.6025 37.8279 32.3858 38.2947 32.2044C38.647 32.0675 39.1765 31.9046 40.1515 31.8601C41.206 31.812 41.5223 31.8018 44.1924 31.8018ZM44.1924 30C41.4765 30 41.136 30.0115 40.0694 30.0602C39.005 30.1087 38.2781 30.2778 37.642 30.525C36.9844 30.7805 36.4267 31.1225 35.8708 31.6784C35.3148 32.2343 34.9729 32.792 34.7174 33.4496C34.4702 34.0857 34.3011 34.8126 34.2526 35.877C34.2039 36.9436 34.1924 37.2841 34.1924 39.9999C34.1924 42.7158 34.2039 43.0563 34.2526 44.1229C34.3011 45.1873 34.4702 45.9143 34.7174 46.5503C34.9729 47.2079 35.3148 47.7656 35.8708 48.3216C36.4267 48.8775 36.9844 49.2194 37.642 49.4749C38.2781 49.7221 39.005 49.8912 40.0694 49.9398C41.136 49.9884 41.4765 49.9999 44.1924 49.9999C46.9082 49.9999 47.2488 49.9884 48.3154 49.9398C49.3798 49.8912 50.1067 49.7221 50.7428 49.4749C51.4003 49.2194 51.958 48.8775 52.514 48.3216C53.0699 47.7656 53.4119 47.2079 53.6674 46.5503C53.9146 45.9143 54.0837 45.1873 54.1322 44.1229C54.1809 43.0563 54.1924 42.7158 54.1924 39.9999C54.1924 37.2841 54.1809 36.9436 54.1322 35.877C54.0837 34.8126 53.9146 34.0857 53.6674 33.4496C53.4119 32.792 53.0699 32.2343 52.514 31.6784C51.958 31.1225 51.4003 30.7805 50.7428 30.525C50.1067 30.2778 49.3798 30.1087 48.3154 30.0602C47.2488 30.0115 46.9082 30 44.1924 30Z" fill="white"/>
<path d="M44.1972 34.8695C41.3611 34.8695 39.062 37.1686 39.062 40.0046C39.062 42.8407 41.3611 45.1397 44.1972 45.1397C47.0332 45.1397 49.3323 42.8407 49.3323 40.0046C49.3323 37.1686 47.0332 34.8695 44.1972 34.8695ZM44.1972 43.3379C42.3562 43.3379 40.8638 41.8456 40.8638 40.0046C40.8638 38.1637 42.3562 36.6713 44.1972 36.6713C46.0381 36.6713 47.5305 38.1637 47.5305 40.0046C47.5305 41.8456 46.0381 43.3379 44.1972 43.3379Z" fill="white"/>
<path d="M50.7347 34.6635C50.7347 35.3262 50.1974 35.8635 49.5347 35.8635C48.872 35.8635 48.3347 35.3262 48.3347 34.6635C48.3347 34.0008 48.872 33.4635 49.5347 33.4635C50.1974 33.4635 50.7347 34.0008 50.7347 34.6635Z" fill="white"/>
</g>
<defs>
<filter id="filter0_d_705_10040" x="0.192383" y="0" width="88" height="88" filterUnits="userSpaceOnUse" color-interpolation-filters="sRGB">
<feFlood flood-opacity="0" result="BackgroundImageFix"/>
<feColorMatrix in="SourceAlpha" type="matrix" values="0 0 0 0 0 0 0 0 0 0 0 0 0 0 0 0 0 0 127 0" result="hardAlpha"/>
<feOffset dy="4"/>
<feGaussianBlur stdDeviation="12"/>
<feComposite in2="hardAlpha" operator="out"/>
<feColorMatrix type="matrix" values="0 0 0 0 0 0 0 0 0 0 0 0 0 0 0 0 0 0 0.15 0"/>
<feBlend mode="normal" in2="BackgroundImageFix" result="effect1_dropShadow_705_10040"/>
<feBlend mode="normal" in="SourceGraphic" in2="effect1_dropShadow_705_10040" result="shape"/>
</filter>
</defs>
</svg>
