<svg width="29" height="29" viewBox="0 0 29 29" fill="none" xmlns="http://www.w3.org/2000/svg">
<path d="M0.428711 14.5C0.428711 6.7685 6.69721 0.5 14.4287 0.5C22.1602 0.5 28.4287 6.7685 28.4287 14.5C28.4287 22.2315 22.1602 28.5 14.4287 28.5C6.70071 28.4907 0.438044 22.228 0.428711 14.5012V14.5ZM3.22871 14.5C3.22871 20.6857 8.24304 25.7 14.4287 25.7C20.6144 25.7 25.6287 20.6857 25.6287 14.5C25.6287 8.31433 20.6144 3.3 14.4287 3.3C8.24654 3.307 3.23571 8.31783 3.22871 14.4988V14.5ZM7.89538 14.5C7.89538 12.7673 8.58371 11.1055 9.80895 9.88024C11.0342 8.655 12.696 7.96667 14.4287 7.96667C16.1615 7.96667 17.8232 8.655 19.0485 9.88024C20.2737 11.1055 20.962 12.7673 20.962 14.5C20.962 16.2327 20.2737 17.8945 19.0485 19.1198C17.8232 20.345 16.1615 21.0333 14.4287 21.0333C12.696 21.0333 11.0342 20.345 9.80895 19.1198C8.58371 17.8945 7.89538 16.2327 7.89538 14.5Z" fill="#24C03D"/>
</svg>
