<svg width="52" height="52" viewBox="0 0 52 52" fill="none" xmlns="http://www.w3.org/2000/svg">
<mask id="mask0_216_3305" style="mask-type:alpha" maskUnits="userSpaceOnUse" x="0" y="0" width="52" height="52">
<circle cx="25.9677" cy="25.9677" r="25.9677" fill="white"/>
</mask>
<g mask="url(#mask0_216_3305)">
<rect y="59.2919" width="67.0654" height="55.9457" transform="rotate(-90 0 59.2919)" fill="url(#paint0_linear_216_3305)"/>
</g>
<path d="M31.6739 29.3963H30.4733L30.0478 28.986C31.5372 27.2534 32.4338 25.0041 32.4338 22.5572C32.4338 17.1012 28.0112 12.6786 22.5552 12.6786C17.0991 12.6786 12.6765 17.1012 12.6765 22.5572C12.6765 28.0133 17.0991 32.4359 22.5552 32.4359C25.002 32.4359 27.2513 31.5392 28.9839 30.0498L29.3942 30.4753V31.676L36.9932 39.2597L39.2577 36.9953L31.6739 29.3963ZM22.5552 29.3963C18.7709 29.3963 15.7161 26.3415 15.7161 22.5572C15.7161 18.773 18.7709 15.7182 22.5552 15.7182C26.3395 15.7182 29.3942 18.773 29.3942 22.5572C29.3942 26.3415 26.3395 29.3963 22.5552 29.3963Z" fill="white"/>
<defs>
<linearGradient id="paint0_linear_216_3305" x1="33.5327" y1="59.2919" x2="33.5327" y2="115.238" gradientUnits="userSpaceOnUse">
<stop stop-color="#7355D7"/>
<stop offset="1" stop-color="#9655D7"/>
</linearGradient>
</defs>
</svg>
